<?xml version="1.0" standalone="no"?>
<!DOCTYPE svg PUBLIC "-//W3C//DTD SVG 20010904//EN"
 "http://www.w3.org/TR/2001/REC-SVG-20010904/DTD/svg10.dtd">
<svg version="1.0" xmlns="http://www.w3.org/2000/svg"
 width="1600.000000pt" height="734.000000pt" viewBox="0 0 1600.000000 734.000000"
 preserveAspectRatio="xMidYMid meet">

<g transform="translate(0.000000,734.000000) scale(0.100000,-0.100000)"
fill="#000000" stroke="none">
<path d="M1 5238 c1 -1161 5 -2071 10 -2032 30 262 126 490 293 702 6 8 54 58
106 111 110 113 236 224 375 331 120 93 221 176 260 213 42 40 68 44 73 12 2
-15 1 -17 -6 -6 -6 8 -17 11 -31 6 -27 -8 -28 -29 -1 -22 12 3 18 1 14 -5 -3
-5 -16 -7 -28 -4 -15 3 -27 -3 -40 -21 -11 -15 -15 -24 -10 -22 5 3 21 11 37
19 34 17 54 3 39 -26 -15 -29 -16 -422 -1 -440 9 -12 9 -20 -1 -39 -10 -19
-10 -27 -1 -39 10 -12 7 -24 -17 -65 -16 -28 -32 -48 -37 -43 -4 4 -5 1 0 -7
4 -7 3 -16 -2 -20 -24 -15 -184 -318 -258 -486 -166 -380 -240 -719 -239
-1105 1 -177 19 -380 40 -434 3 -9 4 -16 1 -16 -3 0 -28 46 -56 102 -28 57
-65 126 -83 153 -18 28 -49 76 -68 108 -19 31 -38 57 -42 57 -4 0 -8 5 -8 11
0 5 -24 47 -53 92 -155 238 -224 391 -246 547 -6 41 -13 86 -15 100 -2 14 -4
-649 -5 -1472 l-1 -1498 8000 0 8000 0 0 3670 0 3670 -8000 0 -8000 0 1 -2102z
m1457 1737 l0 -30 -8 30 c-4 17 -8 39 -8 50 l-1 20 9 -20 c5 -11 8 -33 8 -50z
m3 -176 c-9 -23 -10 -23 -10 -2 -1 12 2 30 6 40 6 15 8 15 11 2 1 -8 -2 -26
-7 -40z m-51 -139 c-6 -12 -14 -20 -17 -17 -2 3 1 14 8 26 17 26 24 19 9 -9z
m10 -190 c-20 -13 -33 -13 -25 0 3 6 14 10 23 10 15 0 15 -2 2 -10z m30 -16
c0 -8 -5 -12 -10 -9 -6 4 -8 11 -5 16 9 14 15 11 15 -7z m23 -51 c4 -19 2 -33
-3 -33 -6 0 -10 17 -10 37 0 43 5 41 13 -4z m20 -58 c-7 -22 -9 -17 -9 31 0
52 1 55 9 27 6 -18 6 -42 0 -58z m-43 -79 l-23 -21 19 33 c10 18 20 28 23 21
2 -6 -7 -21 -19 -33z m4158 -141 c-3 -3 -9 2 -12 12 -6 14 -5 15 5 6 7 -7 10
-15 7 -18z m-4117 -162 c13 -16 12 -17 -3 -4 -10 7 -18 15 -18 17 0 8 8 3 21
-13z m4218 -43 c11 -24 11 -24 -3 -6 -9 11 -16 24 -16 30 0 12 5 7 19 -24z
m-4136 -36 c-3 -8 -9 -14 -14 -14 -4 0 -6 7 -2 15 3 9 -3 26 -13 38 -17 20
-17 20 8 -2 15 -13 24 -29 21 -37z m4167 -37 c0 -5 -4 -5 -10 -2 -5 3 -10 14
-10 23 0 15 2 15 10 2 5 -8 10 -19 10 -23z m-4130 -17 c0 -13 -1 -13 -10 0 -5
8 -10 22 -10 30 0 13 1 13 10 0 5 -8 10 -22 10 -30z m-23 -6 c-3 -3 -12 -4
-19 -1 -8 3 -5 6 6 6 11 1 17 -2 13 -5z m33 -48 c0 -8 -4 -18 -10 -21 -5 -3
-10 3 -10 14 0 12 5 21 10 21 6 0 10 -6 10 -14z m4175 -98 c4 -10 3 -18 -2
-18 -11 0 -33 77 -24 86 3 3 9 -7 12 -23 4 -15 10 -36 14 -45z m-4188 40 c-3
-8 -6 -5 -6 6 -1 11 2 17 5 13 3 -3 4 -12 1 -19z m-27 -66 c0 -5 -7 -17 -16
-28 -14 -17 -15 -17 -10 -1 3 10 6 23 6 28 0 5 5 9 10 9 6 0 10 -4 10 -8z
m4234 -35 c4 -19 3 -26 -4 -22 -5 3 -10 1 -10 -6 0 -7 -2 -10 -5 -7 -3 3 -2
19 1 37 8 36 9 36 18 -2z m-4286 -47 c-7 -10 -14 -17 -17 -15 -4 4 18 35 25
35 2 0 -1 -9 -8 -20z m4289 -22 c-3 -7 -5 -2 -5 12 0 14 2 19 5 13 2 -7 2 -19
0 -25z m-4317 -8 c0 -5 -5 -10 -11 -10 -5 0 -7 5 -4 10 3 6 8 10 11 10 2 0 4
-4 4 -10z m4339 -47 c0 -25 -1 -25 -8 -8 -5 11 -7 23 -4 28 8 14 13 7 12 -20z
m-42 -35 c-3 -8 -6 -5 -6 6 -1 11 2 17 5 13 3 -3 4 -12 1 -19z m62 -87 c1 -64
-5 -47 -12 29 -3 39 -2 55 3 40 4 -14 8 -45 9 -69z m-929 -423 c8 -24 20 -54
27 -68 7 -14 13 -30 13 -36 0 -6 7 -17 15 -24 21 -17 19 -29 -7 -40 -22 -8
-22 -9 -3 -9 12 -1 28 -14 37 -29 16 -27 16 -29 -3 -45 -10 -9 -24 -17 -29
-17 -6 0 -10 -4 -10 -10 0 -5 7 -10 15 -10 13 0 15 -27 15 -180 0 -113 -4
-180 -10 -180 -5 0 -10 -18 -10 -40 0 -22 -4 -40 -10 -40 -6 0 -10 -108 -10
-305 0 -237 3 -305 13 -305 7 0 8 -3 2 -8 -6 -4 -12 -23 -13 -42 -2 -20 -12
-42 -23 -52 -19 -16 -19 -17 3 -32 18 -13 25 -13 37 -3 9 7 30 19 46 25 l30
13 -25 -20 c-14 -11 -41 -28 -60 -38 -19 -10 -39 -23 -45 -29 -5 -6 -35 -24
-65 -40 -30 -16 -57 -32 -60 -35 -7 -7 -155 -79 -200 -96 -188 -72 -370 -117
-535 -133 -127 -12 -176 -11 -93 1 134 19 269 127 336 266 34 72 37 86 40 184
6 167 -28 259 -137 370 -57 58 -140 106 -221 130 -37 11 -41 13 -20 16 296 38
508 152 709 383 17 19 31 38 31 42 0 4 6 13 13 20 42 46 147 253 147 291 0 5
8 16 18 24 9 8 11 12 5 8 -9 -4 -13 2 -13 19 0 14 5 26 11 26 6 0 10 10 9 23
-4 43 0 78 8 73 5 -3 15 -24 22 -48z m-4214 -76 c6 -58 -2 -68 -17 -22 -15 41
-29 28 -29 -26 0 -24 -4 -44 -9 -44 -4 0 -6 24 -3 53 3 35 11 59 26 73 11 12
22 21 23 19 2 -1 5 -25 9 -53z m-17 -69 c1 -12 7 -23 14 -26 9 -3 9 -11 -1
-38 -8 -22 -9 -35 -2 -37 5 -2 10 -21 10 -43 0 -21 3 -39 8 -39 4 0 14 -4 22
-10 12 -7 8 -15 -22 -44 -20 -19 -31 -37 -26 -38 6 -2 -6 -15 -26 -28 -20 -14
-36 -28 -36 -32 0 -5 -5 -8 -11 -8 -11 0 -89 -58 -101 -75 -4 -5 -10 -7 -13
-3 -10 9 36 79 48 71 6 -4 7 -1 2 6 -4 7 -3 23 3 34 20 42 60 152 67 187 4 19
16 52 26 72 11 21 19 54 20 75 0 30 2 34 9 18 5 -11 9 -30 9 -42z m534 -628
c-3 -9 -8 -14 -10 -11 -3 3 -2 9 2 15 9 16 15 13 8 -4z m-83 -136 c-7 -11 -14
-18 -17 -15 -3 3 0 12 7 21 18 21 23 19 10 -6z m380 -144 c0 -5 -5 -3 -10 5
-5 8 -10 20 -10 25 0 6 5 3 10 -5 5 -8 10 -19 10 -25z m38 -120 c0 -16 -2 -15
-8 5 -6 19 -8 21 -9 6 -2 -35 -12 -9 -16 40 l-4 49 19 -40 c10 -22 18 -49 18
-60z m-11 -107 c-3 -7 -5 -2 -5 12 0 14 2 19 5 13 2 -7 2 -19 0 -25z m25 -85
c-2 -65 -11 -142 -19 -171 -20 -71 -25 -62 -7 13 7 33 14 94 14 136 0 65 8
139 14 139 1 0 0 -53 -2 -117z m973 -3 c-3 -5 -12 -10 -18 -10 -7 0 -6 4 3 10
19 12 23 12 15 0z m2453 -32 c-3 -7 -13 -15 -24 -17 -16 -3 -17 -1 -5 13 16
19 34 21 29 4z m82 -7 c0 -5 -7 -12 -16 -15 -14 -5 -15 -4 -4 9 14 17 20 19
20 6z m-2626 -53 c-30 -36 -67 -69 -72 -63 -6 6 70 84 82 85 5 0 1 -10 -10
-22z m2511 2 c-3 -5 -12 -7 -20 -3 -21 7 -19 13 6 13 11 0 18 -4 14 -10z m361
-52 c20 -24 117 -142 137 -168 7 -8 35 -49 62 -90 28 -41 52 -77 55 -80 10
-10 70 -135 70 -145 0 -5 -9 1 -20 15 -25 33 -25 10 0 -40 23 -45 25 -67 8
-72 -10 -4 -10 -10 0 -32 9 -21 9 -36 -1 -73 -9 -36 -9 -47 0 -50 8 -3 5 -11
-8 -24 -23 -23 -24 -23 -74 1 -22 11 -48 19 -57 20 -10 0 -18 5 -18 10 0 6 -8
13 -17 17 -10 3 -47 19 -83 35 -80 37 -116 52 -157 68 -18 7 -33 16 -33 21 0
5 -8 9 -17 9 -18 0 -164 46 -195 61 -24 12 -28 11 -28 -5 0 -7 9 -16 20 -19
11 -3 25 -17 31 -31 11 -23 9 -29 -17 -53 -25 -23 -26 -28 -11 -31 15 -3 17
-19 17 -153 0 -98 4 -149 11 -149 5 0 7 -5 4 -10 -4 -7 -14 -3 -26 11 -16 19
-19 20 -25 5 -4 -11 2 -24 17 -37 16 -14 23 -29 21 -46 -3 -23 -1 -21 35 16
21 23 44 41 51 41 7 0 10 5 7 10 -3 6 -1 10 5 10 7 0 33 10 59 23 185 93 425
60 567 -78 134 -130 170 -246 153 -482 -24 -322 -104 -588 -271 -893 -130
-239 -386 -506 -643 -672 -120 -77 -145 -90 -161 -84 -8 3 -12 2 -9 -4 12 -20
-263 -135 -297 -124 -22 7 -24 24 -2 24 8 0 12 -4 9 -10 -10 -16 14 -12 59 9
58 27 79 34 94 32 6 -1 12 3 12 9 0 5 -7 10 -15 10 -21 0 -19 12 5 38 22 23
21 26 -4 16 -9 -3 -16 -12 -16 -20 0 -15 -10 -17 -35 -8 -14 6 -14 8 0 24 13
14 15 46 16 174 0 93 4 156 9 156 6 0 10 7 10 15 0 11 -5 12 -25 5 -20 -8 -25
-6 -25 6 0 8 11 25 25 38 14 13 25 30 25 39 0 9 5 19 10 22 17 10 12 38 -6 31
-11 -4 -10 1 5 20 12 15 21 33 21 41 0 8 7 21 15 30 9 8 19 28 22 44 3 16 11
33 18 39 7 6 23 42 36 80 12 39 26 70 31 70 4 0 8 18 8 40 0 22 4 40 9 40 5 0
14 19 19 42 42 175 52 227 67 333 24 175 21 595 -5 720 -57 276 -209 498 -449
658 l-81 54 43 11 c302 77 609 229 852 421 28 22 53 40 56 40 3 1 14 -9 25
-21z m-2936 -58 c0 -11 -6 -20 -14 -20 -8 0 -16 -6 -19 -12 -2 -7 -7 -10 -11
-7 -5 5 32 58 42 59 1 0 2 -9 2 -20z m-40 1 c0 -5 -12 -19 -26 -30 -15 -12
-23 -25 -18 -32 4 -8 3 -9 -5 -5 -8 6 -10 0 -5 -18 6 -26 -10 -38 -19 -13 -2
6 -8 8 -13 4 -5 -4 -2 -12 6 -17 23 -14 31 -12 37 10 3 11 10 20 16 20 6 0 18
7 27 15 15 14 18 14 30 0 10 -13 10 -18 -2 -33 -9 -9 -19 -28 -23 -41 -6 -19
-9 -21 -17 -10 -6 10 -7 6 -2 -11 4 -14 7 -29 7 -35 0 -5 -1 -135 -1 -287 -2
-257 -3 -278 -19 -278 -11 0 -14 -3 -7 -8 6 -4 15 -20 21 -37 5 -17 18 -32 29
-33 10 -2 24 -9 29 -14 7 -8 5 -9 -6 -5 -11 3 -22 -5 -34 -26 -10 -18 -23 -36
-29 -40 -6 -5 0 -5 14 -1 22 6 23 6 7 -10 -9 -9 -26 -15 -39 -13 -13 2 -17 2
-10 0 6 -3 12 -7 12 -10 0 -3 -42 -47 -92 -99 -51 -52 -111 -117 -133 -144
-22 -27 -41 -48 -42 -46 -1 1 2 40 7 87 4 46 12 115 15 154 4 38 8 72 10 76 4
6 21 107 35 209 5 36 18 110 30 165 12 55 24 118 26 140 3 22 12 64 20 94 7
30 17 76 20 103 5 35 10 46 16 36 6 -8 7 -1 3 20 -6 27 -2 38 19 58 14 14 40
45 58 70 32 42 48 54 48 35z m3344 -506 c3 -8 1 -15 -4 -15 -6 0 -10 7 -10 15
0 8 2 15 4 15 2 0 6 -7 10 -15z m16 -46 c0 -5 -4 -9 -10 -9 -5 0 -10 7 -10 16
0 8 5 12 10 9 6 -3 10 -10 10 -16z m-3190 -239 c0 -5 -2 -10 -4 -10 -3 0 -8 5
-11 10 -3 6 -1 10 4 10 6 0 11 -4 11 -10z m-670 -920 c9 -16 8 -20 -5 -20 -8
0 -15 9 -15 20 0 11 2 20 5 20 2 0 9 -9 15 -20z m-337 -650 l6 -35 -11 38 c-7
20 -15 37 -20 37 -4 0 -8 8 -8 17 0 30 27 -16 33 -57z m24 -152 c-3 -7 -5 -2
-5 12 0 14 2 19 5 13 2 -7 2 -19 0 -25z m1144 -30 c50 -62 74 -104 100 -177
19 -55 21 -78 16 -158 -3 -52 -9 -99 -14 -106 -5 -7 -15 -30 -22 -51 -14 -42
-22 -54 -58 -91 -13 -12 -23 -27 -23 -34 0 -13 -3 -13 -23 -5 -9 3 -13 13 -9
26 3 11 -1 24 -8 28 -11 7 -11 14 -2 35 15 33 17 365 2 365 -5 0 -10 7 -10 15
0 8 5 15 10 15 6 0 10 18 10 40 0 22 4 40 9 40 5 0 4 14 -2 30 -6 17 -15 30
-19 30 -4 0 -8 9 -8 20 0 30 12 25 51 -22z m-1131 -20 c0 -19 -2 -20 -10 -8
-13 19 -13 30 0 30 6 0 10 -10 10 -22z m1100 -28 c0 -5 -9 -10 -21 -10 -11 0
-17 5 -14 10 3 6 13 10 21 10 8 0 14 -4 14 -10z m-1091 -89 c1 -61 -5 -48 -12
24 -3 36 -2 52 3 40 5 -11 9 -40 9 -64z m3051 9 c0 -5 -4 -10 -10 -10 -5 0
-10 5 -10 10 0 6 5 10 10 10 6 0 10 -4 10 -10z m-3093 -32 c-3 -8 -6 -5 -6 6
-1 11 2 17 5 13 3 -3 4 -12 1 -19z m30 -95 c-2 -16 -4 -5 -4 22 0 28 2 40 4
28 2 -13 2 -35 0 -50z m-30 -165 c-3 -8 -6 -5 -6 6 -1 11 2 17 5 13 3 -3 4
-12 1 -19z m3010 -204 c-3 -3 -12 -4 -19 -1 -8 3 -5 6 6 6 11 1 17 -2 13 -5z
m43 2 c0 -2 -7 -7 -16 -10 -8 -3 -12 -2 -9 4 6 10 25 14 25 6z m-1910 -15 c0
-5 -7 -11 -14 -14 -10 -4 -13 -1 -9 9 6 15 23 19 23 5z m-55 -11 c3 -5 1 -10
-4 -10 -6 0 -11 5 -11 10 0 6 2 10 4 10 3 0 8 -4 11 -10z"/>
<path d="M4910 4910 c0 -5 5 -10 11 -10 5 0 7 5 4 10 -3 6 -8 10 -11 10 -2 0
-4 -4 -4 -10z"/>
<path d="M4960 4716 c0 -9 5 -16 10 -16 6 0 10 4 10 9 0 6 -4 13 -10 16 -5 3
-10 -1 -10 -9z"/>
<path d="M4900 3445 c0 -8 5 -15 10 -15 6 0 10 7 10 15 0 8 -4 15 -10 15 -5 0
-10 -7 -10 -15z"/>
<path d="M720 4600 c0 -5 5 -10 10 -10 6 0 10 5 10 10 0 6 -4 10 -10 10 -5 0
-10 -4 -10 -10z"/>
<path d="M5600 3035 c0 -5 5 -17 10 -25 5 -8 10 -10 10 -5 0 6 -5 17 -10 25
-5 8 -10 11 -10 5z"/>
<path d="M5601 2964 c0 -11 3 -14 6 -6 3 7 2 16 -1 19 -3 4 -6 -2 -5 -13z"/>
<path d="M4961 2413 c0 -12 -4 -28 -7 -36 -4 -10 0 -15 10 -13 19 3 34 16 18
16 -6 0 -13 12 -15 28 -3 20 -4 22 -6 5z"/>
<path d="M4930 2289 c0 -5 5 -7 10 -4 6 3 10 8 10 11 0 2 -4 4 -10 4 -5 0 -10
-5 -10 -11z"/>
<path d="M4910 2250 c0 -11 5 -20 10 -20 6 0 10 9 10 20 0 11 -4 20 -10 20 -5
0 -10 -9 -10 -20z"/>
<path d="M4680 260 c0 -12 8 -12 35 0 18 8 17 9 -7 9 -16 1 -28 -3 -28 -9z"/>
<path d="M2240 3249 c0 -5 5 -7 10 -4 6 3 10 8 10 11 0 2 -4 4 -10 4 -5 0 -10
-5 -10 -11z"/>
<path d="M2216 3105 c-9 -24 -7 -32 4 -15 8 12 10 10 10 -10 1 -23 2 -23 11
-6 9 14 8 22 -4 33 -13 13 -15 13 -21 -2z"/>
<path d="M2320 2525 c0 -8 4 -15 9 -15 5 0 14 7 21 15 10 13 9 15 -9 15 -12 0
-21 -6 -21 -15z"/>
<path d="M2297 2483 c-12 -11 -8 -23 8 -23 8 0 15 7 15 15 0 16 -12 20 -23 8z"/>
<path d="M2261 2394 c0 -11 3 -14 6 -6 3 7 2 16 -1 19 -3 4 -6 -2 -5 -13z"/>
<path d="M2678 293 c7 -3 16 -2 19 1 4 3 -2 6 -13 5 -11 0 -14 -3 -6 -6z"/>
<path d="M1070 3959 c0 -5 5 -7 10 -4 6 3 10 8 10 11 0 2 -4 4 -10 4 -5 0 -10
-5 -10 -11z"/>
<path d="M1050 3930 c0 -5 5 -10 10 -10 6 0 10 5 10 10 0 6 -4 10 -10 10 -5 0
-10 -4 -10 -10z"/>
<path d="M1025 3900 c-19 -8 -19 -9 3 -9 12 -1 22 4 22 9 0 6 -1 10 -2 9 -2 0
-12 -4 -23 -9z"/>
</g>
</svg>
